<?xml version="1.0" standalone="no"?>
<!DOCTYPE svg PUBLIC "-//W3C//DTD SVG 20010904//EN"
 "http://www.w3.org/TR/2001/REC-SVG-20010904/DTD/svg10.dtd">
<svg version="1.0" xmlns="http://www.w3.org/2000/svg"
 width="407.000000pt" height="407.000000pt" viewBox="0 0 407.000000 407.000000"
 preserveAspectRatio="xMidYMid meet">
<metadata>
Created by potrace 1.14, written by Peter Selinger 2001-2017
</metadata>
<g transform="translate(0.000000,407.000000) scale(0.100000,-0.100000)"
fill="#000000" stroke="none">
<path d="M1545 4044 c-61 -20 -132 -67 -206 -136 -31 -29 -104 -98 -164 -153
-59 -55 -126 -117 -149 -139 -22 -21 -77 -71 -122 -112 -44 -40 -94 -86 -110
-101 -29 -27 -101 -94 -394 -362 -180 -165 -270 -252 -271 -260 -5 -41 -3 -56
12 -75 22 -28 30 -31 234 -95 88 -27 220 -68 292 -91 73 -23 134 -41 135 -40
2 1 21 -5 43 -14 34 -13 230 -75 260 -82 6 -1 62 -19 125 -39 63 -20 129 -40
145 -44 17 -5 134 -41 260 -81 274 -87 335 -96 417 -57 29 13 72 42 95 63 23
22 85 80 139 129 53 50 112 104 131 121 18 18 75 70 126 117 50 47 106 98 122
113 26 25 156 143 244 223 14 13 75 69 135 125 61 56 135 124 165 151 30 28
97 91 148 140 84 82 92 93 88 120 -7 39 -41 68 -101 88 -27 8 -319 99 -649
202 -330 103 -679 211 -775 242 -199 63 -289 74 -375 47z"/>
<path d="M3503 3286 c-23 -18 -91 -78 -150 -134 -59 -55 -118 -109 -130 -119
-20 -18 -203 -187 -263 -243 -14 -14 -80 -74 -146 -135 -65 -60 -144 -133
-174 -161 -30 -28 -79 -73 -109 -100 -29 -27 -68 -62 -86 -79 -17 -16 -82 -77
-143 -134 -126 -117 -148 -146 -163 -222 -10 -50 -6 -74 56 -354 37 -165 71
-316 75 -335 4 -19 44 -199 90 -400 45 -201 90 -401 100 -445 61 -280 70 -310
96 -333 14 -12 37 -22 50 -22 31 0 45 11 187 142 109 101 203 187 301 278 27
25 81 75 120 111 71 65 167 155 217 200 15 13 77 71 139 129 62 58 122 113
134 123 11 10 73 68 137 128 123 115 158 166 179 257 16 69 10 120 -40 337
-42 185 -77 341 -86 385 -5 22 -94 421 -205 915 -23 99 -50 195 -61 213 -27
44 -68 44 -125 -2z"/>
<path d="M73 2528 c-23 -11 -42 -52 -37 -78 2 -8 10 -46 18 -85 8 -38 35 -160
60 -270 54 -236 97 -424 101 -445 2 -8 22 -97 45 -198 23 -100 43 -190 45
-200 2 -9 11 -48 20 -87 9 -38 19 -81 21 -94 3 -12 12 -53 20 -90 9 -36 18
-79 21 -96 26 -166 106 -291 224 -348 47 -23 405 -139 659 -213 47 -14 103
-31 125 -39 22 -8 94 -31 160 -51 138 -41 412 -128 510 -159 231 -76 266 -80
303 -39 33 38 40 -6 -98 594 -28 124 -55 243 -60 265 -8 41 -92 415 -135 605
-13 58 -36 156 -50 218 -14 62 -31 128 -39 146 -20 49 -80 111 -129 134 -33
15 -548 180 -617 198 -8 2 -114 35 -235 73 -121 38 -317 99 -435 136 -478 149
-455 143 -497 123z"/>
</g>
</svg>
